<svg
  xmlns="http://www.w3.org/2000/svg"
  viewBox="0 0 64 64"
  width="64px"
  height="64px"
>
  <!-- Outer Circle -->
  <circle cx="32" cy="32" r="30" fill="#007bff" />

  <!-- Book Shape -->
  <path
    d="M16 16h20a4 4 0 014 4v24a4 4 0 01-4 4H16a4 4 0 01-4-4V20a4 4 0 014-4z"
    fill="#ffffff"
  />
  <path
    d="M40 16h8v32h-8z"
    fill="#d9e4f4"
  />
  <path
    d="M24 20h8v2h-8zM24 24h8v2h-8zM24 28h8v2h-8zM24 32h8v2h-8zM24 36h8v2h-8z"
    fill="#007bff"
  />

  <!-- Inner Circle Accent -->
  <circle cx="32" cy="32" r="20" fill="none" stroke="#ffffff" stroke-width="2" />

  <!-- Notebook Icon -->
  <path
    d="M44 22H34v20h10c2.2 0 4-1.8 4-4V26c0-2.2-1.8-4-4-4z"
    fill="#e1ecf9"
  />
</svg>
